/* XPM */
static const char *bitcoin64_xpm[] = {
/* columns rows colors chars-per-pixel */
"64 64 253 2",
"   c Black",
"o  c #7F5B15",
"@  c #EFAA28",
"_  c #FFFFFE",
"e  c #FFFFFF",
"f. c #FFFCF7",
"5. c #FFF9EE",
"f  c #FFFCF8",
"R. c #FFF6E5",
"K. c #FFF3DB",
"l. c #FFFCF9",
"N  c #FFF9EF",
"VX c #FFF9F0",
"O. c #FFF3DC",
"g  c #FFF6E6",
"xX c #FFF0D3",
"eX c #FFF6E7",
"&X c #FFF3DD",
"iX c #FFEDCA",
"x  c #FFF0D4",
"0  c #FFF3DE",
"3X c #FFEAC1",
"-. c #FFF0D5",
")  c #FFEDCB",
" X c #FFF0D6",
"k. c #FFEDCC",
"d  c #FFEAC2",
"[  c #FFEAC3",
"9  c #FFE7B9",
"O  c #AF7D1D",
"jX c #FFE4B0",
"B. c #FFE7BA",
"Y. c #FFE4B1",
"h. c #FFE7BB",
"ZX c #FFDE9E",
"zX c #FFE4B2",
"}. c #FFE1A8",
"m. c #FFE1A9",
"h  c #FFDE9F",
"8X c #FFDB96",
"n. c #FFDEA0",
"). c #FFDEA1",
"b. c #FFD88D",
"5X c #FFDB98",
"R  c #FFD88E",
"KX c #FFDB99",
"bX c #FFD585",
",X c #FFD27B",
"8  c #FFD88F",
"!. c #FFD890",
"H  c #FFD586",
"C  c #FFD27C",
"GX c #FFCF73",
"vX c #FFD587",
"<. c #FFD27E",
"{  c #FFCC6A",
"c  c #FFCF74",
"@. c #FFCC6B",
"s  c #FFCF75",
"XX c #FFCC6C",
"Z  c #FFC962",
"#X c #FFC659",
"9. c #FFC963",
"m  c #FFCC6D",
"@X c #FFC65A",
"~. c #FFC964",
"+. c #FFC047",
"F  c #FFC351",
"=  c #1F1605",
"yX c #FFC048",
"j  c #FFC352",
"A. c #FFC049",
"6. c #FFBD3F",
"-X c #FFBA36",
"k  c #FFBD40",
"p  c #FFC04A",
"OX c #FFBA37",
"E. c #FFBD41",
"$. c #FFB72D",
"2  c #FFB72E",
",  c #FFBA38",
"=. c #FFB72F",
"t. c #FFB730",
"0. c #FFB427",
"4  c #DF9F25",
"X  c #4F380D",
".  c #0F0B02",
"qX c #FFFEFC",
"]  c #FFFBF3",
"w  c #FFFEFD",
"U. c #FFF8EA",
"I  c #FFFEFE",
"q  c #FFFBF4",
"#. c #FFFBF5",
"t  c #FFF8EB",
"wX c #FFF5E2",
"&. c #FFF8EC",
"[. c #FFF5E3",
"_. c #FFF8ED",
"N. c #FFF2D9",
"u. c #FFF2DA",
"!  c #FFF5E4",
"y  c #FFEFD0",
"G. c #3F2D0A",
"C. c #FFF2DB",
"X. c #FFECC7",
"+X c #FFEFD2",
"M. c #FFECC8",
"Q. c #FFE6B5",
"a. c #FFE9BF",
"%. c #FFECC9",
":X c #FFE6B6",
"|  c #FFE9C0",
"q. c #FFE9C1",
"dX c #FFE6B8",
"J  c #FFE3AE",
"b  c #FFE0A4",
"sX c #FFE3AF",
"u  c #FFE0A5",
"HX c #FFE0A6",
"aX c #FFE3B0",
"tX c #FFDD9C",
"NX c #FFDD9D",
"*. c #FFE0A7",
"nX c #FFD78A",
"|. c #FFDD9E",
"SX c #FFD481",
"kX c #FFDA95",
"I. c #FFD78B",
"DX c #FFD78C",
" . c #FFD178",
"j. c #FFD483",
";. c #FFD179",
"LX c #FFD484",
"w. c #FFCE70",
"M  c #FFD17A",
"e. c #FFCE71",
"G  c #FFCB67",
"i  c #FFD17B",
"0X c #FFCE72",
"x. c #FFCB68",
"lX c #FFCB69",
"7X c #FFCB6A",
"F. c #FFC556",
"'  c #FFC860",
"o. c #FFC557",
"7  c #FFC861",
"9X c #FFC558",
"=X c #FFBF44",
"L. c #FFC24E",
"Z. c #FFC862",
"cX c #FFC559",
"rX c #FFBF45",
"2. c #FFC24F",
"(. c #FFBF46",
"Q  c #FFC250",
"Y  c #FFBC3C",
"*X c #FFBF47",
">. c #FFB933",
"S  c #FFBC3D",
"$X c #FFBC3E",
"`. c #FFB934",
"a  c #FFB62A",
"H. c #FFB935",
"#  c #FFB62B",
"v  c #FFB62C",
"1  c #FFB936",
"`  c #FFB62D",
"-  c #6F4F12",
"*  c #2F2208",
"5  c #9F711A",
"&  c #5F4410",
"$  c #CF9322",
"n  c #FFFDF9",
"d. c #FFFAF0",
"r  c #FFFDFA",
"V. c #FFFAF1",
"~  c #FFFDFB",
"fX c #FFFAF2",
"<X c #FFF7E8",
"2X c #FFF7E9",
"E  c #FFF4DF",
"z  c #FFFAF3",
"MX c #FFF7EA",
"}  c #FFF4E0",
"B  c #FFF1D6",
"6X c #FFEECD",
"p. c #FFF1D7",
"i. c #FFF4E1",
"BX c #FFEBC4",
".X c #FFEECE",
"P. c #FFF1D8",
"J. c #FFEECF",
"K  c #FFEBC5",
"mX c #FFE8BC",
"8. c #FFEED0",
"U  c #FFEBC6",
"AX c #FFE5B3",
"gX c #FFEBC7",
"P  c #FFE8BD",
"^. c #FFE2AA",
"y. c #FFE8BE",
"r. c #FFE2AB",
"l  c #FFDFA1",
"^  c #FFE2AC",
"V  c #FFDFA2",
"pX c #FFE2AD",
"%X c #FFDC99",
".. c #FFDFA3",
"JX c #FFDFA4",
"FX c #FFDC9A",
">X c #FFD990",
"z. c #FFD991",
"1. c #FFD687",
":. c #FFDC9B",
";X c #FFD688",
"]. c #FFD992",
"'. c #FFD37F",
"{. c #FFD68A",
",. c #FFD380",
"W  c #FFD076",
"W. c #FFD381",
"T. c #FFCD6D",
"c. c #FFD077",
"hX c #FFCD6E",
"uX c #FFD078",
"D. c #FFCD6F",
"v. c #FFCA65",
"/. c #FFC75C",
"(  c #FFCA66",
"g. c #FFCA67",
"7. c #FFC453",
"4X c #FFC455",
"T  c #FFC14B",
"4. c #FFC456",
"D  c #FFBE42",
"A  c #FFC14C",
"/  c #FFC14D",
"L  c #FFBE43",
"<  c #FFBB39",
"%  c #8F6618",
"S. c #FFBB3A",
"s. c #FFB830",
"3. c #FFBE44",
"1X c #FFB527",
"oX c #FFBB3B",
">  c #FFB831",
"6  c #FFB832",
":  c #FFB528",
"CX c #FFB833",
"3  c #FFB529",
";  c #FFB52A",
"+  c #BF8820",
/* pixels */
"                                                                                                                                ",
"                                                . X o O + @ # # # # # $ + % & *                                                 ",
"                                          = - $ # # # ; : ; > , < 1 2 : 3 # # # 4 5 X                                           ",
"                                      X + # # 3 6 7 8 9 0 q w e e e r t y u i p 3 a # 4 o .                                     ",
"                                  X 4 # ; 6 s d f e e e e e e e e e e e e e e e g h j 3 # @ o .                                 ",
"                              = + # ; k l z e e e e e e e e e e e e e e e e e e e e e x c v # @ &                               ",
"                            - # # , b n e e e e e e e e e e e e e e e e e e e e e e e e e 0 m ; # + .                           ",
"                        . + # ; M N e e e e e e e w B V C Z A k S D F G H J g e e e e e e e e K L # @ *                         ",
"                      * 4 # < P e e e e e e I U M Y 3 # # # # # # # # # # ; 3 T R E e e e e e e q W 3 # &                       ",
"                    * @ # Q ! e e e e e ~ ^ / 3 # # # # # # # # # # # # # # # # # # ( ) e e e e e _ u ` # -                     ",
"                  * @ ; ' ] e e e e e [ T ; # # # # # # # # # # # # # # # # # # # # # 3 { } e e e e e | 6 # -                   ",
"                = @ a Z f e e e e ]  .3 # # # # # # # # # # # # # # # # # # # # # # # # # > ..I e e e e X.6 # &                 ",
"              . $ # o.f e e e e O.+.# # # # # # # # # # # # # # # # # # # # # # # # # # # # ; @.#.e e e e | $.# *               ",
"              O # L N e e e e %.1 # # # # # # # # # # # # # # # # # # # # # # # # # # # # # # # Q &.e e e e *.3 @ .             ",
"            X # =.-.e e e e U > # # # # # # # # # # # # # # # # # # # # # # # # # # # # # # # # # +.&.e e e e ;.# +             ",
"          . @ ; :.e e e e x >.# # # # # # # # # # # ; C ,.,.<.# S 1.1.1.m ; # # # # # # # # # # # # 2.#.e e e q 3.# &           ",
"          5 # 4.w e e e 5.6.# # # # # # # # # # # # ; q e e r ` 7.e e e d ; # # # # # # # # # # # # # { I e e e X.; @ .         ",
"        = # ; 8.e e e I 9.# # # # ; : : : : : : : : 0.q e e r ; F e e e q.0.: ; # # # # # # # # # # # ; V e e e e w.# o         ",
"        5 # e.e e e e r.; # # # # t.y.u.u.u.u.u.u.u.u.w e e I u.i.e e e q u.p.a.R D ; # # # # # # # # # s.E e e e i.` @ .       ",
"      = # ; p.e e e d., # # # # # # F f.e e e e e e e J g.g.h.e e j.F F k.e e e e l.z.v # # # # # # # # # x.e e e e c.# o       ",
"      o # v.e e e e b.# # # # # # # a W _ e e e e e e R # # n.e e x.# ; q.e e e e e e m.; # # # # # # # # 3 M.e e e N.; 4       ",
"      4 ; B.e e e V.6 # # # # # # # # 3 u e e e C.' Z.3.# # A.Z.Z.S.# ; j D.h N e e e e c # # # # # # # # # 9.e e e e F.# X     ",
"    G.# H.f e e e l ; # # # # # # # # # $.J.e e J.3 # # # # # # # # # # # # a H.[ e e e O.3 # # # # # # # # a K.e e e u ; 5     ",
"    % # c.e e e _ L.# # # # # # # # # # # S t e J.3 # # # # # # # # # # # # # # =.P.e e e A # # # # # # # # # I.e e e U.; 4     ",
"    $ ; Y.e e e 0 3 # # # # # # # # # # # # Z e J.3 # # # # # v v v v 3 # # # # # g.e e e T.# # # # # # # # # +.I e e e 2.# *   ",
"    # : R.e e e V # # # # # # # # # # # # # E.e J.3 # # # # Y.f f f f B 6.# # # # 2 f e e c # # # # # # # # # 3 i.e e e W.# -   ",
"  G.# < I e e e e.# # # # # # # # # # # # # E.e J.3 # # # # Q.e e e e e !.# # # # 0.R.e e ~.# # # # # # # # # a m.e e e ^.# 5   ",
"  - # /.e e e e (.# # # # # # # # # # # # # E.e J.3 # # # # Q.e e e e e ).# # # # 3 _.e ] `.# # # # # # # # # # W.e e e B : +   ",
"  % # i e e e f.v # # # # # # # # # # # # # E.e J.3 # # # # Q.e e e e e '.# # # # 2.I e 8 ; # # # # # # # # # # 9.e e e d.3 4   ",
"  + # ].e e e [.: # # # # # # # # # # # # # E.e J.3 # # # # C *.*.*.*.{.` # # # =.) e }.v # # # # # # # # # # # T e e e w > #   ",
"  + # |.e e e  X: # # # # # # # # # # # # # E.e J.3 # # # # # # # # # # # # 3 F .Xp.XX; # # # # # # # # # # # # S e e e e oX#   ",
"  + # V e e e y 3 # # # # # # # # # # # # # E.e J.3 # # # # # # # # # # # < ^ } v.: # # # # # # # # # # # # # # OXe e e e 6.#   ",
"  + # ).e e e +X3 # # # # # # # # # # # # # E.e J.3 # # # # # # # # # # # # 3 @XJ.d #X; # # # # # # # # # # # # S.e e e e $X#   ",
"  + # %Xe e e &X: # # # # # # # # # # # # # E.e J.3 # # # # L 2.2.2.2.*X; # # # v J I m.=.# # # # # # # # # # # =Xe e e e -X#   ",
"  + # ;Xe e e d.3 # # # # # # # # # # # # # E.e J.3 # # # # :Xe e e e e >Xa # # # v P.e a.v # # # # # # # # # # @Xe e e n $.#   ",
"  o # XXe e e I < # # # # # # # # # # # # # E.e J.3 # # # # Q.e e e e e O.: # # # # ,Xe e ;X# # # # # # # # # # c e e e R.: $   ",
"  X # T e e e e 9.# # # # # # # # # # # # # E.e J.3 # # # # Q.e e e e e <X1X# # # # (.e e 2X# # # # # # # # # # :.e e e d ; +   ",
"  * # 2 f.e e e >X# # # # # # # # # # # # # E.e J.3 # # # # Q.e e e e e 3X3 # # # # oXe e e 4X# # # # # # # # 3 k.e e e 5X# o   ",
"    # 3 6Xe e e M.3 # # # # # # # # # # # # E.e J.3 # # # # b.3X3X3Xq.}.D # # # # # j e e e w.# # # # # # # # 1 r e e e 7X# &   ",
"    + # 8Xe e e n , # # # # # # # # # # # # 9Xe J.3 # # # # ; ; ; ; ; a # # # # # # 8 e e e 0X# # # # # # # # 0Xe e e qX, # =   ",
"    - # 4Xe e e e j.# # # # # # # # # # # OXwXe J.3 # # # # # # # # # # # # # # # E.N e e e 7 # # # # # # # ; P e e e k.3 $     ",
"    = # ; wXe e e u.; # # # # # # # # # v K e e J.3 # # # # # # # # # # # # ; ; G eXe e e f.6 # # # # # # # rXqXe e e ,.# %     ",
"      $ # ].e e e e g.# # # # # # # # ; tXe e e g z.z.yX# ; uXz.z.yX# ; c :.9 2Xe e e e e }.; # # # # # # ; ..e e e f OX# *     ",
"      & # S f e e e  Xa # # # # # # a e.I e e e e e e x.# ; iXe e x.# ; q.e e e e e e e C.OX# # # # # # # rXf e e e pX; $       ",
"      . @ ; m.e e e e i # # # # # # 2.f.e e e e e e e aX!.8 [.e e u W.W.u.e e e e e qXsX, # # # # # # # 3 dXe e e qXyX# &       ",
"        o # D f.e e e V.6.# # # # > q.&X&X&X&X&X&X&Xg e e e fX&X[.e e e #.O.N.gXr.W.D ; # # # # # # # # hX_ e e e jX; 4         ",
"        . @ ; kXe e e e X.v # # # ; : : : : : : : : g.e e e Y.: F e e e q.0.: ; # # # # # # # # # # # E.5.e e e q $X# &         ",
"          - # 6 E e e e e |.; # # # # # # # # # # # lXe e e zX# 7.e e e d ; # # # # # # # # # # # # 6 xXe e e e H a $           ",
"            $ # cX~ e e e e vX; # # # # # # # # # # rXbXbXbX~.# oX<.<.<.( ; # # # # # # # # # # # 2 | e e e e gX# # *           ",
"            * @ ; nXe e e e I H ; # # # # # # # # # # # # # # # # # # # # # # # # # # # # # # # t.mXe e e e MX6.# %             ",
"              - # ; zXe e e e e NXv # # # # # # # # # # # # # # # # # # # # # # # # # # # # # < ) e e e e f.#X# $               ",
"                5 # 2 BXe e e e e U S # # # # # # # # # # # # # # # # # # # # # # # # # # ; #XeXe e e e ~ 7X; @ .               ",
"                  + # t.BXe e e e e VXuXa # # # # # # # # # # # # # # # # # # # # # # # CXZXqXe e e e r T.; @ *                 ",
"                  . $ # 2 AXe e e e e e +XZ ; # # # # # # # # # # # # # # # # # # # =.SXU.e e e e e q ' ; @ *                   ",
"                    . $ # ; DX~ e e e e e e  X'.H.3 # # # # # # # # # # # # # 3 rX8Xt e e e e e e O.p # @ *                     ",
"                        5 # ; @XE e e e e e e e f d I./.`.: : 3 ; 3 : 3 S lXFXx w e e e e e e I *.6 # $ *                       ",
"                          - # # 6 5Xf e e e e e e e e e w t P.k.M.J.O.d.I e e e e e e e e e N.' ; # O .                         ",
"                            * $ # ; 3.r.n e e e e e e e e e e e e e e e e e e e e e e e E i v # @ -                             ",
"                                o @ # ; k kXR.e e e e e e e e e e e e e e e e e e ~ d D.v # # 5 .                               ",
"                                  . o @ # # ; #XFX+Xn e e e e e e e e e e e &.9 '.oX3 # # + G.                                  ",
"                                      . & $ # # # 3 t.F GX8 h HX}.JXKXLX~.k 3 ; # # @ 5 =                                       ",
"                                            * - + # # # # # # # # # # # # # # 4 % X                                             ",
"                                                    G.& % + + + + + + 5 - G..                                                   ",
"                                                                                                                                "
};
