/* XPM */
static const char *bitcoin16_xpm[] = {
/* columns rows colors chars-per-pixel */
"16 16 145 2",
"0. c #050401",
"   c Black",
"b. c #89631B",
"n. c #46320B",
"f. c #FCE0AC",
"@. c #9B762F",
"T  c #FFFCF7",
"F  c #FFFCF8",
"I  c #FFF9EF",
"q. c #352609",
"C  c #FFF6E6",
":  c #FFF3DC",
"S  c #FFF3DD",
"8  c #FFF0D3",
"[  c #FFF0D4",
"-  c #FFF0D5",
"&. c #FFEDCC",
"k. c #FFEAC3",
"9  c #FFEAC4",
"<. c #CDA14D",
"a  c #FFE4B2",
"O. c #FFDE9F",
"l  c #FFDEA1",
"<  c #674B14",
"p. c #FFDB98",
"d  c #010100",
"*. c #FFD585",
"-. c #FFD27C",
"s. c #FFD587",
"Q  c #FFD27D",
"o. c #FFCC6B",
"3  c #FFCF75",
"K  c #FFCC6C",
"A  c #FFC963",
"x. c #856019",
"`  c #FFC65A",
"7  c #FFC964",
"Z  c #FFC049",
"c  c #FFC353",
"2. c #FFC04A",
"B  c #FFBD40",
"7. c #FFBA37",
"X. c #FFBD41",
"p  c #FFB72E",
"r  c #FFBA38",
"i  c #FFB72F",
"t  c #FFB730",
"+  c #BC9854",
"b  c #422F0B",
"h. c #362709",
",  c #543C0F",
"g. c #684C15",
"(  c #BD9956",
"@  c #9D7833",
"Y  c #AC8437",
",. c #553D0E",
"w  c #FCDFA9",
"&  c #DEB567",
"l. c #D9AE5D",
"D  c #87621A",
"1. c #FFFBF3",
"d. c #FFF8EA",
"}  c #FFFBF4",
"+. c #FFFBF5",
"e. c #FFF5E2",
"g  c #FFF8EC",
"=  c #FFFBF6",
"8. c #FFF5E3",
";. c #FFF2DA",
"2  c #FFF5E4",
"/  c #FFEFD1",
"4. c #FFECC8",
"*  c #FFEFD2",
"z  c #FFECCA",
"$. c #FFE6B7",
"n  c #FFE9C1",
".. c #FFE6B8",
"5. c #FFDD9C",
">  c #E6C079",
"'  c #FFDD9D",
"v  c #E6C07A",
"P  c #FFDA95",
"k  c #FFD78B",
"~  c #FFD483",
":. c #FFD484",
"6. c #FFCB69",
">. c #FFCE73",
"W  c #FFC24D",
"j  c #FFC24E",
"!  c #FFBF47",
"u  c #FFBC3D",
"]  c #FFBC3F",
"5  c #FFB62B",
"v. c #AD8539",
"6  c #FFB62C",
"X  c #513A0D",
"0  c #795A1F",
"q  c #402E0A",
"#. c #3B2A0A",
")  c #AB8235",
"j. c #CEA14D",
"U  c #9F7A35",
"9. c #E0B76B",
"o  c #98732C",
"z. c #3C2B0A",
"c. c #AC8336",
"#  c #5A400F",
"$  c #080601",
"_  c #FFFDF9",
";  c #FFFAF0",
"s  c #FFEBC4",
"e  c #FFEECE",
"L  c #FFEBC6",
"u. c #49340C",
"3. c #FFE2AC",
"%. c #FFDC99",
"x  c #FFDC9A",
"m  c #FFD689",
"M  c #FFD380",
"V  c #FFD077",
"E  c #FFCA65",
" . c #FFCA66",
"J  c #FFC453",
"H  c #FFCA67",
"a. c #FFC14A",
"|  c #FFC14C",
"t. c #FFBB39",
"=. c #FFC14D",
"G  c #FFBE43",
"N  c #FFBE44",
"y  c #FFBB3A",
"4  c #FFB830",
"^  c #FFB831",
"h  c #FFBB3B",
"r. c #FFB832",
"R  c #FFB52A",
"1  c #FDE2AE",
"f  c #D5AA5A",
".  c #040300",
"{  c #835E18",
"O  c #BA9652",
"%  c #45310B",
"y. c #FEE3B1",
"i. c #573E0F",
"w. c #F9D694",
/* pixels */
"        . X o O + @ # $         ",
"      % & * = - * ; : > ,       ",
"    < 1 2 3 4 5 5 6 7 8 9 0     ",
"  q w e r 5 t y u i 5 p a s ,   ",
"d f g h j k l z z x c 5 p 8 v $ ",
"b n m 5 i e M N B V C Z 5 A S # ",
"D F G 5 5 H J K L y P K 5 6 I U ",
"Y T R 5 5 E J W Q ! ~ ^ 5 5 / ( ",
") _ 5 5 5 E J ` ' ] m ! 5 5 [ + ",
"{ } | 5 5  .J  ...X.o.O.5 t +.@.",
"#.$.%.5 i &.*.=.N -.;.:.5 >.[ ,.",
"  <.1.2.j k 3.4.* 5.6.5 7.8.9.0.",
"  q.w.e.2.5 r.t.h p 5 y &.y.u.  ",
"    i.w.1.p.a.5 R X.s.d.f.g.    ",
"      h.j...+.F +._ k.l.b       ",
"          z.x.c.v.b.n.d         "
};
