/* XPM */
static const char *bitcoin32_xpm[] = {
/* columns rows colors chars-per-pixel */
"32 32 228 2",
"   c Black",
"O  c #7F5B15",
"#  c #231906",
"J. c #EFAA27",
"pX c #EFAA28",
"X  c #4B360C",
"+X c #BB851F",
".  c #171104",
";X c #E3A226",
"9  c #FFFFFF",
"j  c #FFFCF6",
"=. c #FFFCF7",
"5  c #F7B22E",
"). c #FFF9EE",
"@. c #FFF6E4",
"h  c #FFFCF8",
"}. c #F7B230",
"%. c #FFF6E5",
"J  c #FFF9EF",
"$. c #FFF6E6",
"7X c #FFF0D3",
"p  c #FFF3DD",
"u  c #FFF6E7",
"]. c #FFEDCA",
"V. c #FFF0D4",
"B  c #FFEDCB",
"tX c #FFF0D6",
"g  c #FFEDCC",
"(. c #FFE7B9",
"7  c #FFEDCD",
"w. c #FFE7BB",
"R  c #FFE1A7",
"-X c #FFE7BC",
"&. c #FFE4B2",
"]  c #FFE1A8",
"q. c #FFE1A9",
"+. c #FFE4B3",
"d  c #FFDE9F",
"@  c #533B0E",
"6. c #FFDEA0",
"k  c #FFDB96",
"#X c #FFD88D",
"{  c #FFDB98",
"v  c #FFD88E",
"F  c #FFDB99",
">  c #FFD88F",
"[. c #FFD586",
"~. c #FFD890",
"6  c #FFD27C",
"S. c #FFD27F",
"[  c #FFCF75",
"5X c #FFC962",
"H. c #FFCC6C",
"XX c #FFCC6D",
"~  c #FFC659",
"b. c #FFC964",
"=X c #FFC351",
"Z. c #1F1605",
"$X c #FFC048",
"N. c #FFC352",
"U. c #FFBD3F",
"a. c #FFC049",
"!  c #FFBD40",
"C  c #FFC04A",
"6X c #FFBD41",
"z. c #FFB72E",
"<X c #FFB72F",
"%X c #FFBA39",
"i. c #FFB730",
"gX c #B7821E",
"$  c #130E03",
"1  c #DF9F25",
"4  c #835D16",
"P  c #F3AF2F",
"Z  c #4F380D",
"%  c #775514",
">X c #1B1304",
"}  c #E7A426",
"2X c #FBB735",
"A  c #FBB738",
"0. c #B37F1E",
"t  c #DB9C24",
"l  c #EFAC2E",
"aX c #A7771C",
"+  c #735213",
"D  c #FFFEFC",
"8  c #FFFEFD",
"'. c #FFF8EA",
"E  c #FFFBF4",
"i  c #FFFEFE",
"n. c #FFF8EB",
"h. c #FFFBF6",
"o. c #FFF8EC",
"G. c #FFF2D9",
"7. c #FFF5E3",
"V  c #FFF2DA",
"|  c #FFEFD1",
"/  c #FFF2DB",
"W. c #FFEFD2",
"S  c #FFEFD3",
"`. c #FFE9C0",
"8. c #FFECCA",
"x  c #FFE6B6",
"f  c #FFE3AD",
"a  c #FFE6B7",
"/. c #FFE3AE",
"X. c #FFE6B8",
"L. c #FFE0A5",
"c. c #FFDD9C",
"{. c #FFDA93",
"v. c #FFDD9E",
"q  c #FFDA94",
"M. c #FFD78B",
"x. c #FFD481",
"@X c #FFD482",
"9. c #FFDA96",
"9X c #FFD483",
"3. c #FFD78D",
"qX c #FFCE70",
":X c #0B0802",
"Q. c #D79923",
"N  c #FFCE71",
"dX c #FFCB68",
"yX c #D79924",
",  c #FFCE72",
"G  c #FFCB69",
"y  c #FFCE73",
"Y  c #FFC861",
"I. c #FFC24E",
"g. c #FFC558",
"0X c #FFC24F",
",. c #FFBF45",
"!. c #FFBC3C",
"<  c #FFBF46",
" X c #FFBF47",
"A. c #FFB933",
"<. c #FFBC3D",
"Y. c #FFBC3E",
"f. c #FFB62A",
"F. c #FFB935",
"Q  c #FFBC3F",
"m  c #FFB62B",
"m. c #FFB936",
".. c #FFB62C",
"r. c #FFB62D",
"T. c #A3741B",
"(  c #6F4F12",
"hX c #634710",
"3  c #070501",
"L  c #2F2208",
"w  c #FBB93C",
"-. c #FBB93E",
"e  c #9F711A",
"o  c #6B4C12",
"3X c #372709",
"k. c #5F4410",
"T  c #030200",
"&  c #CF9322",
"D. c #FFFDF9",
"d. c #2B1F07",
"e. c #FFFDFA",
">. c #FFFDFB",
"U  c #FFFAF1",
"H  c #FFF7E7",
"z  c #F7B332",
"fX c #F7B029",
"1X c #FFFAF2",
"1. c #FFF7E8",
"c  c #FFF7E9",
"0  c #FFF4E0",
"R. c #FFF1D7",
"O. c #FFF4E1",
"2. c #FFEECE",
"#. c #FFF1D8",
"I  c #FFEECF",
"_. c #FFEBC7",
"C. c #FFE5B3",
" . c #FFE5B4",
"^. c #FFE5B5",
"j. c #FFE2AB",
"s  c #FFDFA2",
"wX c #FFE2AD",
",X c #FFDFA3",
";  c #FFDC99",
"iX c #FFDC9A",
".X c #FFDFA4",
":  c #FFDC9B",
"K. c #FFD688",
"4. c #FFD992",
"'  c #FFD993",
"-  c #FFD689",
"E. c #FFD68A",
"u. c #FFD380",
"5. c #FFD381",
"_  c #FFCD6E",
"OX c #FFD079",
"l. c #FFCA65",
"t. c #FFCD6F",
"sX c #FFCA66",
"oX c #FFC75C",
"B. c #FFCD70",
":. c #FFC75D",
"=  c #FFCA67",
"&X c #FFC454",
"uX c #FFC14B",
")  c #FFC75F",
"W  c #FFC455",
"K  c #FFC456",
"*X c #FFBB39",
"b  c #FFBE43",
"P. c #FFB830",
"*. c #FFBE44",
"*  c #FFBB3A",
"p. c #FFB831",
"^  c #FFBB3B",
"M  c #FFB832",
"r  c #332408",
"`  c #FFB529",
"n  c #FFB52A",
"|. c #5B410F",
"eX c #F3B030",
"s. c #271C06",
"y. c #F3AD28",
"4X c #F3AD2A",
"rX c #BF8820",
"2  c #8B6317",
"8X c #FBB83A",
";. c #573E0E",
/* pixels */
"                        . X o O O + @ #                         ",
"                  $ % & * = - ; : > , < 1 2 #                   ",
"              3 4 5 6 7 8 9 9 9 9 9 9 9 0 q w e .               ",
"            r t y u 9 9 i p a s d f g h 9 9 j k l X             ",
"          @ z x 9 9 c v b n m m m m n M N B 9 9 V C +           ",
"        Z A S 9 D F M m m m m m m m m m m n G H 9 J K +         ",
"      L P I 9 U Y m m m m m m m m m m m m m m * g 9 J C X       ",
"    T & R 9 E W m m m m m Q W ! < ~ ^ m m m m m M B 9 / l .     ",
"    ( ) i i _ m n ` ` ` ` v 9 ' ] 9 [ n m m m m m * u 9 { e     ",
"  3 } | 9  .n m ..X.o.o.o.O.+.@.#.] $.%.&.*.m m m m G 9 =.-.#   ",
"  ;.:.9 >.,.m m m <.1.9 2.3.m 4.5.n 6.7.9 c <.m m m n 8.9 9.2   ",
"  0.q.9 w.n m m m m ~ e.6 m m m m m m r.&.9 q m m m m t.9 7.1   ",
"  y.%.9 [ m m m m m m ] 6 m m u.4.- i.m * 8 X.m m m m p.=.9 a.s.",
"d.^ i 9 b m m m m m m 6.6 m m V 9 9 Y m ` E s m m m m f.8.9 [ ;.",
"@ g.9 h.n m m m m m m 6.6 m m x S B ! m :.c *.m m m m m j.9 4.% ",
"k.l.9 c n m m m m m m 6.6 m m m m m z.x.3.^ m m m m m m c.9 v.O ",
"k.b.9 n.` m m m m m m 6.6 m m * <.^ n m.: M...m m m m m d 9 c.O ",
"Z N.9 >.z.m m m m m m 6.6 m m V 9 9 B.m m V.c.m m m m m C.9 3.+ ",
"Z.A.8 9 N.m m m m m m 6.6 m m V 9 9 S.m m 6.D.F.m m m n G.9 H.Z ",
"  J.#.9 K.m m m m m m L.6 m m G [ t.P.m m X.9 I.m m m U.8 i Y.Z.",
"  T.{ 9 R.n m m m m W =.6 m m m m m m n _ >.8 * m m m E.9 W.Q.  ",
"  X a.8 9 b.m m m !.$.9 p ~.n ^.~.n  .1.9 9 /.n m m p.$.9 5.O   ",
"  T t X.9 V i.m ..(.).).).%._.o.O.`.'.H ].[.z.m m m {.9 '.}..   ",
"    |. X=.9 .Xn n ` ` ` ` +.9 XX] 9 [ n m m m m m oXe.9 OX2     ",
"      +X@X9 9 #Xn m m m m $Xg.%Xb &X*Xm m m m m =XJ 9 -X;X:X    ",
"      >X} q.9 9 ,X<Xm m m m m m m m m m m m n G 1X9 R.2X3X      ",
"        r 4Xq.9 9 G.5Xn m m m m m m m m m 6X/.i 9 7X8X@         ",
"          3X} 9X=.9 9 V.[.0X..n n n Q qXx e.9 i wXeX@           ",
"            >XrX$X(.8 9 9 9 D.1.%.1Xi 9 9 9 tXb.yXL             ",
"                k.t uXiXV 8 9 9 9 9 9 1.wXY pX% T               ",
"                  T X aXJ.F.K sXdXoXY.fXgXhX3                   ",
"                          s.@ k.k.;.d.T                         "
};
